<?xml version="1.0" encoding="UTF-8"?>
<svg width="120px" height="125px" viewBox="0 0 120 125" version="1.1" xmlns="http://www.w3.org/2000/svg" xmlns:xlink="http://www.w3.org/1999/xlink">
    <title>notion-logo</title>
    <g id="Page-1" stroke="none" stroke-width="1" fill="none" fill-rule="evenodd">
        <g id="notion-logo" fill-rule="nonzero">
            <path d="M7.5434,5.39003038 L76.9175,0.285063924 C85.4366,-0.445070933 87.6285,0.0440100426 92.983,3.93075592 L115.128,19.4837062 C118.782,22.1582166 120,22.886375 120,25.8019061 L120,111.10435 C120,116.450373 118.051,119.612021 111.237,120.095662 L30.6734,124.957045 C25.5584,125.200864 23.124,124.472406 20.4453,121.067938 L4.13735,99.9250664 C1.21516,96.0333614 0,93.1217274 0,89.7151615 L0,13.8926653 C0,9.52081751 1.94945,5.87413026 7.5434,5.39003038 Z" id="Background" fill="#FFFFFF"></path>
            <path d="M20.6927,21.9151974 C24.5836,25.0737478 26.0432,24.8327271 33.3492,24.3456894 L102.228,20.2128638 C103.689,20.2128638 102.474,18.7565471 101.987,18.5145272 L90.5477,10.2509744 C88.3558,8.55062923 85.4356,6.60326786 79.8387,7.09035552 L13.1433,11.9513095 C10.711,12.1923302 10.2251,13.4075262 11.1939,14.3817015 L20.6927,21.9151974 Z M24.8281,37.9552653 L24.8281,110.373894 C24.8281,114.265998 26.7745,115.721915 31.1553,115.481094 L106.853,111.10435 C111.236,110.863529 111.724,108.186521 111.724,105.024873 L111.724,33.0922829 C111.724,29.935731 110.509,28.2333974 107.826,28.4764166 L28.721,33.0922829 C25.8018,33.3374005 24.8281,34.796615 24.8281,37.9552653 Z M99.5567,41.8399755 C100.042,44.0294468 99.5567,46.2168196 97.3618,46.4628366 L93.7143,47.1889964 L93.7143,100.653125 C90.5477,102.35386 87.6275,103.326136 85.1942,103.326136 C81.2983,103.326136 80.3226,102.110041 77.4044,98.4667513 L53.5471,61.0415916 L53.5471,97.2515552 L61.0964,98.9538889 C61.0964,98.9538889 61.0964,103.326136 55.0057,103.326136 L38.2148,104.299412 C37.727,103.326136 38.2148,100.897943 39.9179,100.411305 L44.2996,99.1979074 L44.2996,51.321822 L38.2158,50.8346844 C37.728,48.6453131 38.9431,45.4886613 42.3532,45.2436436 L60.3661,44.0303461 L85.1942,81.9426434 L85.1942,48.4041924 L78.864,47.6781326 C78.3781,45.0016236 80.3226,43.0581693 82.7569,42.8171486 L99.5567,41.8399755 Z M7.5434,5.39003038 L76.9175,0.285063924 C85.4366,-0.445070933 87.6285,0.0440100426 92.983,3.93075592 L115.128,19.4837062 C118.782,22.1582166 120,22.886375 120,25.8019061 L120,111.10435 C120,116.450373 118.051,119.612021 111.237,120.095662 L30.6734,124.957045 C25.5584,125.200864 23.124,124.472406 20.4453,121.067938 L4.13735,99.9250664 C1.21516,96.0333614 0,93.1217274 0,89.7151615 L0,13.8926653 C0,9.52081751 1.94945,5.87413026 7.5434,5.39003038 Z" id="Shape" fill="#000000"></path>
        </g>
    </g>
</svg>