<svg width="384" height="384" viewBox="0 0 384 384" fill="none" xmlns="http://www.w3.org/2000/svg">
<rect width="384" height="384" fill="white"/>
<circle cx="192" cy="192" r="192" fill="#1F5927"/>
<rect width="384" height="384" fill="#3FB34F"/>
<path fill-rule="evenodd" clip-rule="evenodd" d="M163.469 163.531L132.5 132.561L101.531 163.531L112.844 174.844L132.5 155.189L152.156 174.844L163.469 163.531ZM132.5 166.311L172.469 206.281L161.156 217.594L132.5 188.939L103.844 217.594L92.5308 206.281L132.5 166.311ZM132.5 200.061L178.657 246.218L167.343 257.532L140.5 230.689V292.375H124.5V230.689L97.657 257.532L86.3433 246.218L132.5 200.061Z" fill="#1F5927"/>
<path fill-rule="evenodd" clip-rule="evenodd" d="M281.594 121.906L239.375 79.6863L197.156 121.906L208.469 133.219L239.375 102.314L270.281 133.219L281.594 121.906ZM239.375 119.061L290.594 170.281L279.281 181.594L239.375 141.689L199.469 181.594L188.156 170.281L239.375 119.061ZM239.375 159.561L296.782 216.968L285.468 228.282L247.375 190.189V292.375H231.375V190.189L193.282 228.282L181.968 216.968L239.375 159.561Z" fill="white"/>
</svg>
