<svg width="667" height="218" viewBox="0 0 667 218" fill="none" xmlns="http://www.w3.org/2000/svg">
<path d="M4.5 111H23.4545V83.7273H48.5455V111H67.5V41.1818H48.5455V68.4545H23.4545V41.1818H4.5V111ZM91.3636 111.818C98.1818 111.818 103.33 109.5 106.5 103.636H106.909V111H124.5V75.1364C124.5 65.4545 115.159 57.9545 100.773 57.9545C84.5455 57.9545 77.0114 66.1364 76.3636 75.6818H93.6818C94.125 72.4432 96.5114 70.9091 100.091 70.9091C103.432 70.9091 105.614 72.3409 105.682 75.1364C105.75 78.2727 102.341 79.2614 93.5455 79.9091C82.7386 80.6932 74.3182 85.0568 74.3182 96.5455C74.3182 106.977 81.3409 111.818 91.3636 111.818ZM97.5 99.9545C94.2955 99.9545 92.0455 98.3864 92.0455 95.4545C92.0455 92.7614 93.9545 90.6818 98.3182 90C101.318 89.5227 103.841 88.9091 105.818 88.0909V92.4545C105.818 97.2273 101.761 99.9545 97.5 99.9545ZM158.991 111.955C174.503 111.955 184.014 103.057 184.219 89.1818H166.764C166.355 94.6705 163.389 97.6364 159.264 97.6364C154.321 97.6364 151.082 93.4091 151.082 84.8182C151.082 76.2273 154.321 72 159.264 72C163.423 72 166.253 74.9659 166.764 80.4545H184.219C184.116 66.8182 174.401 57.9545 158.991 57.9545C141.946 57.9545 131.855 68.8636 131.855 84.9545C131.855 101.045 141.946 111.955 158.991 111.955ZM191.991 111H210.81V96.1364L213.639 92.5568L224.31 111H245.855L227.514 81.5795L245.31 58.6364H224.173L211.491 76.2273H210.81V41.1818H191.991V111ZM4.5 197H23.4545V176.273H33.9545C49.875 176.273 60.5795 166.83 60.5455 151.864C60.5795 136.932 50.1477 127.182 34.6364 127.182H4.5V197ZM23.4545 161.545V142.318H30.1364C36.7841 142.318 40.8068 146 40.7727 151.864C40.8068 157.966 36.7841 161.545 30.1364 161.545H23.4545ZM92.0114 197.955C106.534 197.955 115.875 191 117.648 180.091H100.466C99.375 183.057 96.2727 184.727 92.4205 184.727C86.8295 184.727 83.5568 181.045 83.5568 176V175.182H117.648V170.818C117.648 154.148 107.42 143.955 91.6023 143.955C75.375 143.955 65.0114 154.727 65.0114 170.955C65.0114 187.898 75.2386 197.955 92.0114 197.955ZM83.5568 164.818C83.6591 160.284 87.4091 157.182 92.0114 157.182C96.6818 157.182 100.227 160.318 100.33 164.818H83.5568ZM144.341 167.545C144.375 162.364 147.307 159.227 151.977 159.227C156.716 159.227 159.511 162.364 159.477 167.545V197H178.295V163.591C178.33 152.205 171.136 143.955 160.023 143.955C152.318 143.955 146.216 147.977 143.932 154.591H143.386V144.636H125.523V197H144.341V167.545ZM206.403 167.545C206.438 162.364 209.369 159.227 214.04 159.227C218.778 159.227 221.574 162.364 221.54 167.545V197H240.358V163.591C240.392 152.205 233.199 143.955 222.085 143.955C214.381 143.955 208.278 147.977 205.994 154.591H205.449V144.636H187.585V197H206.403V167.545ZM297.511 161.682C297.034 150.602 287.83 143.955 272.693 143.955C257.727 143.955 248.489 150.091 248.557 161C248.489 169.25 253.841 174.534 264.511 176.409L273.784 178.045C277.875 178.795 279.716 179.886 279.784 181.864C279.716 184.045 277.227 185.273 273.784 185.273C269.523 185.273 266.523 183.432 266.011 180.091H247.33C248.352 190.83 257.625 197.955 273.648 197.955C288.136 197.955 298.807 190.898 298.875 179.682C298.807 171.943 293.625 167.443 282.92 165.5L272.284 163.591C268.295 162.875 267.17 161.443 267.239 159.909C267.17 157.727 269.864 156.5 273.102 156.5C276.818 156.5 279.92 158.477 280.193 161.682H297.511ZM316.858 217.455C329.676 217.455 336.869 209.955 339.767 201.364L358.858 144.636H339.085L330.494 180.909H329.949L321.494 144.636H301.858L320.267 199.318L319.858 200.273C318.324 202.966 314.949 203 310.312 201.364L306.222 215.409C308.438 216.295 311.847 217.455 316.858 217.455ZM454.483 144.636H434.71L426.256 179.273H425.71L417.256 144.636H397.483L415.074 197H436.892L454.483 144.636ZM473.02 197.818C479.838 197.818 484.986 195.5 488.156 189.636H488.565V197H506.156V161.136C506.156 151.455 496.815 143.955 482.429 143.955C466.202 143.955 458.668 152.136 458.02 161.682H475.338C475.781 158.443 478.168 156.909 481.747 156.909C485.088 156.909 487.27 158.341 487.338 161.136C487.406 164.273 483.997 165.261 475.202 165.909C464.395 166.693 455.974 171.057 455.974 182.545C455.974 192.977 462.997 197.818 473.02 197.818ZM479.156 185.955C475.952 185.955 473.702 184.386 473.702 181.455C473.702 178.761 475.611 176.682 479.974 176C482.974 175.523 485.497 174.909 487.474 174.091V178.455C487.474 183.227 483.418 185.955 479.156 185.955ZM533.966 167.545C534 162.364 536.932 159.227 541.602 159.227C546.341 159.227 549.136 162.364 549.102 167.545V197H567.92V163.591C567.955 152.205 560.761 143.955 549.648 143.955C541.943 143.955 535.841 147.977 533.557 154.591H533.011V144.636H515.148V197H533.966V167.545ZM629.301 197.818C636.119 197.818 641.267 195.5 644.438 189.636H644.847V197H662.438V161.136C662.438 151.455 653.097 143.955 638.71 143.955C622.483 143.955 614.949 152.136 614.301 161.682H631.619C632.062 158.443 634.449 156.909 638.028 156.909C641.369 156.909 643.551 158.341 643.619 161.136C643.688 164.273 640.278 165.261 631.483 165.909C620.676 166.693 612.256 171.057 612.256 182.545C612.256 192.977 619.278 197.818 629.301 197.818ZM635.438 185.955C632.233 185.955 629.983 184.386 629.983 181.455C629.983 178.761 631.892 176.682 636.256 176C639.256 175.523 641.778 174.909 643.756 174.091V178.455C643.756 183.227 639.699 185.955 635.438 185.955Z" fill="white"/>
<path fill-rule="evenodd" clip-rule="evenodd" d="M619.157 47.8431L591 19.6863L562.843 47.8431L574.157 59.1569L591 42.3137L607.843 59.1569L619.157 47.8431ZM591 49.6863L627.157 85.8431L615.843 97.1569L591 72.3137L566.157 97.1569L554.843 85.8431L591 49.6863ZM591 79.6863L632.657 121.343L621.343 132.657L599 110.314V196.5H583V110.314L560.657 132.657L549.343 121.343L591 79.6863Z" fill="#3FB34F"/>
<path fill-rule="evenodd" clip-rule="evenodd" d="M417.157 38.8431L379 0.686295L340.843 38.8431L352.157 50.1569L379 23.3137L405.843 50.1569L417.157 38.8431ZM379 35.6863L425.157 81.8432L413.843 93.1569L379 58.3137L344.157 93.1569L332.843 81.8432L379 35.6863ZM379 71.6863L430.657 123.343L419.343 134.657L387 102.314V197H371V102.314L338.657 134.657L327.343 123.343L379 71.6863Z" fill="#3FB34F"/>
</svg>
